{
    "asset" : {
        "generator" : "Khronos glTF Blender I/O v1.5.17",
        "version" : "2.0"
    },
    "scene" : 0,
    "scenes" : [
        {
            "name" : "Scene",
            "nodes" : [
                0,
                1,
                2
            ]
        }
    ],
    "nodes" : [
        {
            "name" : "Light",
            "rotation" : [
                0.16907575726509094,
                0.7558803558349609,
                -0.27217137813568115,
                0.570947527885437
            ],
            "translation" : [
                4.076245307922363,
                5.903861999511719,
                -1.0054539442062378
            ]
        },
        {
            "name" : "Camera",
            "rotation" : [
                0.483536034822464,
                0.33687159419059753,
                -0.20870360732078552,
                0.7804827094078064
            ],
            "translation" : [
                7.358891487121582,
                4.958309173583984,
                6.925790786743164
            ]
        },
        {
            "mesh" : 0,
            "name" : "Curve.003",
            "rotation" : [
                0.7071068286895752,
                0,
                0,
                0.7071068286895752
            ],
            "scale" : [
                209.65106201171875,
                209.65106201171875,
                209.65106201171875
            ]
        }
    ],
    "materials" : [
        {
            "doubleSided" : true,
            "name" : "SVGMat.003",
            "pbrMetallicRoughness" : {
                "baseColorFactor" : [
                    0.004024717025458813,
                    0.004024717025458813,
                    0.109461709856987,
                    1
                ],
                "metallicFactor" : 0,
                "roughnessFactor" : 0.4000000059604645
            }
        }
    ],
    "meshes" : [
        {
            "name" : "Curve.003",
            "primitives" : [
                {
                    "attributes" : {
                        "POSITION" : 0,
                        "NORMAL" : 1,
                        "TEXCOORD_0" : 2
                    },
                    "indices" : 3,
                    "material" : 0
                }
            ]
        }
    ],
    "accessors" : [
        {
            "bufferView" : 0,
            "componentType" : 5126,
            "count" : 21434,
            "max" : [
                0.01946740597486496,
                0.0010999999940395355,
                0.0031760320998728275
            ],
            "min" : [
                -0.014582762494683266,
                -0.0010999999940395355,
                -0.004058521240949631
            ],
            "type" : "VEC3"
        },
        {
            "bufferView" : 1,
            "componentType" : 5126,
            "count" : 21434,
            "type" : "VEC3"
        },
        {
            "bufferView" : 2,
            "componentType" : 5126,
            "count" : 21434,
            "type" : "VEC2"
        },
        {
            "bufferView" : 3,
            "componentType" : 5123,
            "count" : 92694,
            "type" : "SCALAR"
        }
    ],
    "bufferViews" : [
        {
            "buffer" : 0,
            "byteLength" : 257208,
            "byteOffset" : 0
        },
        {
            "buffer" : 0,
            "byteLength" : 257208,
            "byteOffset" : 257208
        },
        {
            "buffer" : 0,
            "byteLength" : 171472,
            "byteOffset" : 514416
        },
        {
            "buffer" : 0,
            "byteLength" : 185388,
            "byteOffset" : 685888
        }
    ],
    "buffers" : [
        {
            "byteLength" : 871276,
            "uri" : "data:application/octet-stream;base64,"
        }
    ]
}
